<svg viewBox="0 0 1720 540" xmlns="http://www.w3.org/2000/svg" font-family="'Inter','SF Pro Display',-apple-system,'Segoe UI','PingFang SC','Noto Sans CJK SC',sans-serif">
  <defs>
    <marker id="arr" markerWidth="10" markerHeight="10" refX="7" refY="3.5" orient="auto"><path d="M0,0 L7,3.5 L0,7 z" fill="#6b655c"/></marker>
    <marker id="arrB" markerWidth="10" markerHeight="10" refX="7" refY="3.5" orient="auto"><path d="M0,0 L7,3.5 L0,7 z" fill="#49c0c9"/></marker>
    <marker id="arrG" markerWidth="10" markerHeight="10" refX="7" refY="3.5" orient="auto"><path d="M0,0 L7,3.5 L0,7 z" fill="#65d6a1"/></marker>
    <marker id="arrA" markerWidth="10" markerHeight="10" refX="7" refY="3.5" orient="auto"><path d="M0,0 L7,3.5 L0,7 z" fill="#e7bd61"/></marker>
    <marker id="arrO" markerWidth="10" markerHeight="10" refX="7" refY="3.5" orient="auto"><path d="M0,0 L7,3.5 L0,7 z" fill="#f27d53"/></marker>
    <filter id="glow" x="-60%" y="-60%" width="220%" height="220%"><feGaussianBlur stdDeviation="22"/></filter>
    <style>
      .ttl{fill:#f1eee8;font-size:15px;font-weight:600}
      .sub{fill:#9b948a;font-size:11px}
      .lbl{fill:#8e887f;font-size:11px;font-weight:500}
      .node{fill:#211f1a;stroke:#3a352e;stroke-width:1}
      .gl{stroke-width:1.7;fill:none;stroke-linecap:round;stroke-linejoin:round}
    </style>
  </defs>

  <rect x="0" y="0" width="1720" height="540" rx="18" fill="#171512"/>
  <circle cx="319" cy="260" r="62" fill="#49c0c9" opacity="0.04"/>
  <circle cx="1576" cy="260" r="66" fill="#f27d53" opacity="0.05"/>

  <!-- orchestration connectors -->
  <path class="gl" d="M190,260 H224" stroke="#6b655c" marker-end="url(#arr)"/>
  <path class="gl" d="M319,194 V212" stroke="#49c0c9" stroke-dasharray="2 6" opacity=".85" marker-end="url(#arrB)"/>
  <text class="lbl" x="328" y="208" fill="#78d6dc">context</text>

  <path class="gl" d="M414,244 C444,210 444,172 470,150" stroke="#49c0c9" marker-end="url(#arrB)"/>
  <path class="gl" d="M414,260 H470" stroke="#49c0c9" marker-end="url(#arrB)"/>
  <path class="gl" d="M414,276 C444,310 444,348 470,370" stroke="#49c0c9" marker-end="url(#arrB)"/>

  <path class="gl" d="M680,150 C710,172 710,232 740,256" stroke="#6b655c" marker-end="url(#arr)"/>
  <path class="gl" d="M680,260 H740" stroke="#6b655c" marker-end="url(#arr)"/>
  <path class="gl" d="M680,370 C710,348 710,288 740,264" stroke="#6b655c" marker-end="url(#arr)"/>

  <!-- delivery rail connectors -->
  <path class="gl" d="M898,260 H940" stroke="#65d6a1" marker-end="url(#arrG)"/>
  <text class="lbl" x="904" y="250" fill="#65d6a1">green</text>
  <path class="gl" d="M1090,260 H1124" stroke="#6b655c" marker-end="url(#arr)"/>
  <path class="gl" d="M1274,260 H1308" stroke="#6b655c" marker-end="url(#arr)"/>
  <path class="gl" d="M1458,260 H1492" stroke="#f27d53" marker-end="url(#arrO)"/>
  <text class="lbl" x="1462" y="250" fill="#d8956d">promote</text>

  <!-- retry -->
  <path class="gl" d="M828,308 C828,468 470,468 319,310" stroke="#e7bd61" stroke-dasharray="5 5" opacity=".8" marker-end="url(#arrA)"/>
  <text class="lbl" x="520" y="486" fill="#e7bd61">red · bounded retry / escalate</text>

  <!-- Task -->
  <rect class="node" x="40" y="215" width="150" height="90" rx="13"/>
  <circle cx="70" cy="246" r="13" fill="#49c0c9" opacity="0.16"/>
  <circle cx="70" cy="246" r="6.5" fill="none" stroke="#78d6dc" class="gl"/><circle cx="70" cy="246" r="2.2" fill="#78d6dc"/>
  <text class="ttl" x="92" y="252">Task</text>
  <text class="sub" x="56" y="288">PRD · bug · refactor</text>

  <!-- Repo map -->
  <rect class="node" x="224" y="120" width="190" height="74" rx="13"/>
  <circle cx="252" cy="150" r="13" fill="#2a2621"/>
  <g class="gl" stroke="#c4bdb2"><circle cx="247" cy="145" r="2" fill="#c4bdb2" stroke="none"/><circle cx="259" cy="142" r="2" fill="#c4bdb2" stroke="none"/><circle cx="256" cy="156" r="2" fill="#c4bdb2" stroke="none"/><path d="M247,145 L259,142 M259,142 L256,156 M247,145 L256,156"/></g>
  <text class="ttl" x="274" y="150" font-size="14">Repo map</text>
  <text class="sub" x="240" y="178">profiles + dep graph</text>

  <!-- Lead -->
  <rect x="224" y="212" width="190" height="96" rx="13" fill="#173034" stroke="#49c0c9" stroke-width="1.4"/>
  <circle cx="254" cy="246" r="14" fill="#49c0c9" opacity="0.2"/>
  <circle cx="254" cy="246" r="8" fill="none" stroke="#9de5e8" class="gl"/>
  <path d="M254,239 L258,246 L254,253 L250,246 Z" fill="#9de5e8"/>
  <text class="ttl" x="278" y="244">Lead agent</text>
  <text class="sub" x="240" y="288">classify · plan · scope</text>

  <!-- Workers -->
  <g>
    <rect class="node" x="470" y="106" width="210" height="88" rx="13"/>
    <circle cx="500" cy="140" r="13" fill="#2a2621"/>
    <g class="gl" stroke="#c4bdb2"><path d="M495,135 l4,5 l-4,5"/><path d="M502,146 h6"/></g>
    <text class="ttl" x="523" y="138">Worker · repo A</text>
    <text class="sub" x="486" y="162">worktree · brief</text>
    <circle cx="660" cy="138" r="4" fill="#65d6a1"/>
    <text x="486" y="182" class="sub" fill="#8e887f">Claude</text>
  </g>
  <g>
    <rect class="node" x="470" y="216" width="210" height="88" rx="13"/>
    <circle cx="500" cy="250" r="13" fill="#2a2621"/>
    <g class="gl" stroke="#c4bdb2"><path d="M495,245 l4,5 l-4,5"/><path d="M502,256 h6"/></g>
    <text class="ttl" x="523" y="248">Worker · repo B</text>
    <text class="sub" x="486" y="272">worktree · brief</text>
    <circle cx="660" cy="248" r="4" fill="#65d6a1"/>
    <text x="486" y="292" class="sub" fill="#8e887f">Codex</text>
  </g>
  <g>
    <rect class="node" x="470" y="326" width="210" height="88" rx="13"/>
    <circle cx="500" cy="360" r="13" fill="#2a2621"/>
    <g class="gl" stroke="#c4bdb2"><path d="M495,355 l4,5 l-4,5"/><path d="M502,366 h6"/></g>
    <text class="ttl" x="523" y="358">Worker · repo C</text>
    <text class="sub" x="486" y="382">worktree · brief</text>
    <circle cx="660" cy="358" r="4" fill="#65d6a1"/>
    <text x="486" y="402" class="sub" fill="#8e887f">OpenCode</text>
  </g>

  <!-- Verify -->
  <rect class="node" x="740" y="212" width="158" height="96" rx="13" stroke="#315748"/>
  <circle cx="770" cy="246" r="14" fill="#65d6a1" opacity="0.16"/>
  <path class="gl" d="M764,246 l4,4 l8,-9" stroke="#73dca9"/>
  <text class="ttl" x="792" y="244" font-size="14">Verify</text>
  <text class="sub" x="756" y="288">lint · type · test</text>

  <!-- Open PR -->
  <rect class="node" x="940" y="212" width="150" height="96" rx="13"/>
  <circle cx="970" cy="246" r="13" fill="#2a2621"/>
  <g class="gl" stroke="#c4bdb2"><circle cx="965" cy="241" r="2.4" fill="#c4bdb2" stroke="none"/><circle cx="965" cy="252" r="2.4" fill="#c4bdb2" stroke="none"/><path d="M965,243 v7"/><path d="M965,244 C972,244 976,247 976,252"/><circle cx="976" cy="252" r="2.4" fill="#c4bdb2" stroke="none"/></g>
  <text class="ttl" x="992" y="244" font-size="14">Open PR</text>
  <text class="sub" x="956" y="288">draft the change</text>

  <!-- Merge -->
  <rect class="node" x="1124" y="212" width="150" height="96" rx="13"/>
  <circle cx="1154" cy="246" r="13" fill="#2a2621"/>
  <g class="gl" stroke="#c4bdb2"><circle cx="1149" cy="240" r="2.4" fill="#c4bdb2" stroke="none"/><path d="M1149,242 v6 a8,8 0 0 0 8,8"/><circle cx="1149" cy="253" r="2.4" fill="#c4bdb2" stroke="none"/><circle cx="1160" cy="256" r="2.4" fill="#c4bdb2" stroke="none"/></g>
  <text class="ttl" x="1176" y="244" font-size="14">Merge</text>
  <text class="sub" x="1140" y="288">into the trunk</text>

  <!-- Deploy: staging -->
  <rect class="node" x="1308" y="212" width="150" height="96" rx="13"/>
  <circle cx="1338" cy="246" r="13" fill="#2a2621"/>
  <g class="gl" stroke="#c4bdb2"><path d="M1333,251 h10" /><path d="M1338,251 v-9" /><path d="M1334,246 l4,-4 l4,4" /></g>
  <text class="ttl" x="1360" y="244" font-size="14">Staging</text>
  <text class="sub" x="1324" y="288">deploy · verify</text>

  <!-- Deploy: production (outcome) -->
  <rect x="1492" y="212" width="168" height="96" rx="13" fill="#2d1d18" stroke="#f27d53" stroke-width="1.5"/>
  <circle cx="1522" cy="246" r="14" fill="#f27d53" opacity="0.9"/>
  <path class="gl" d="M1516,246 l4,4 l8,-9" stroke="#171512" stroke-width="2.1"/>
  <text x="1546" y="244" fill="#ffb092" font-size="14.5" font-weight="600">Production</text>
  <text class="sub" x="1508" y="288" fill="#c7977c">live · shipped</text>

  <!-- now / roadmap brackets -->
  <path class="gl" d="M940,322 v7 M940,329 H1090 M1090,329 v-7" stroke="#315748" stroke-width="1.2" opacity=".8"/>
  <text class="lbl" x="1015" y="348" fill="#65d6a1" text-anchor="middle">today</text>
  <path class="gl" d="M1124,322 v7 M1124,329 H1660 M1660,329 v-7" stroke="#725927" stroke-width="1.2" stroke-dasharray="4 4" opacity=".9"/>
  <text class="lbl" x="1392" y="348" fill="#e7bd61" text-anchor="middle">roadmap — auto-merge &amp; deploy across environments (staging → production)</text>
</svg>
